<svg width="19" height="14" viewBox="0 0 19 14" fill="none" xmlns="http://www.w3.org/2000/svg">
<path d="M18.531 1.28055L6.53104 13.2806C6.46139 13.3503 6.37867 13.4056 6.28762 13.4433C6.19657 13.4811 6.09898 13.5005 6.00042 13.5005C5.90186 13.5005 5.80426 13.4811 5.71321 13.4433C5.62216 13.4056 5.53945 13.3503 5.46979 13.2806L0.219792 8.03055C0.0790615 7.88982 0 7.69895 0 7.49993C0 7.30091 0.0790615 7.11003 0.219792 6.9693C0.360523 6.82857 0.551394 6.74951 0.750417 6.74951C0.94944 6.74951 1.14031 6.82857 1.28104 6.9693L6.00042 11.6896L17.4698 0.219303C17.6105 0.0785729 17.8014 -0.000488283 18.0004 -0.000488281C18.1994 -0.00048828 18.3903 0.0785729 18.531 0.219303C18.6718 0.360034 18.7508 0.550906 18.7508 0.749929C18.7508 0.948952 18.6718 1.13982 18.531 1.28055Z" fill="#08C86F"/>
</svg>
