<svg width="16" height="16" viewBox="0 0 16 16" fill="none" xmlns="http://www.w3.org/2000/svg">
<path fill-rule="evenodd" clip-rule="evenodd" d="M8.00031 9.4139L13.6573 15.0709C13.8459 15.2531 14.0985 15.3539 14.3607 15.3516C14.6229 15.3493 14.8737 15.2441 15.0591 15.0587C15.2445 14.8733 15.3497 14.6225 15.352 14.3603C15.3543 14.0981 15.2535 13.8455 15.0713 13.6569L9.41431 7.9999L15.0713 2.34291C15.2535 2.1543 15.3543 1.9017 15.352 1.6395C15.3497 1.37731 15.2445 1.12649 15.0591 0.941087C14.8737 0.755679 14.6229 0.65051 14.3607 0.648231C14.0985 0.645953 13.8459 0.746747 13.6573 0.928905L8.00031 6.58591L2.34331 0.928905C2.15386 0.75125 1.90272 0.654271 1.64304 0.658487C1.38336 0.662704 1.1355 0.767787 0.951921 0.951499C0.768338 1.13521 0.663431 1.38314 0.659398 1.64283C0.655365 1.90251 0.752522 2.15358 0.930311 2.34291L6.58631 7.9999L0.929311 13.6569C0.833801 13.7492 0.757619 13.8595 0.70521 13.9815C0.652801 14.1035 0.625215 14.2347 0.624061 14.3675C0.622907 14.5003 0.648209 14.632 0.69849 14.7549C0.748771 14.8778 0.823024 14.9894 0.916916 15.0833C1.01081 15.1772 1.12246 15.2514 1.24536 15.3017C1.36825 15.352 1.49993 15.3773 1.63271 15.3762C1.76549 15.375 1.89671 15.3474 2.01872 15.295C2.14072 15.2426 2.25106 15.1664 2.34331 15.0709L8.00031 9.4139Z" fill="white"/>
</svg>
