<svg width="64" height="64" viewBox="0 0 64 64" fill="none" xmlns="http://www.w3.org/2000/svg">
<path d="M49.149 8.81738H42.3468C42.0646 9.6274 41.6133 10.3612 41.0357 10.9574H49.1487C49.281 10.9574 49.3933 11.074 49.3933 11.206V56.2724C49.3933 56.4047 49.281 56.5255 49.1487 56.5255H15.7029C15.5705 56.5255 15.4583 56.4047 15.4583 56.2724V11.2063C15.4583 11.074 15.5705 10.9577 15.7029 10.9577H23.8159C23.2385 10.3615 22.7873 9.62771 22.5047 8.8177H15.7025C14.393 8.8177 13.3333 9.89709 13.3333 11.2067V56.273C13.3333 57.5826 14.393 58.6661 15.7025 58.6661H49.1487C50.4582 58.6661 51.5179 57.5826 51.5179 56.273V11.2063C51.5185 9.89678 50.4585 8.81738 49.149 8.81738Z" fill="#0D0D0D"/>
<path d="M32.4262 5.33301C31.1348 5.33301 30.088 6.35658 30.088 7.67117H24.8958C24.8962 8.17574 24.984 8.65021 25.142 9.10053C25.3493 9.69103 25.6814 10.226 26.1054 10.6688C26.8966 11.4955 28.012 12.0126 29.2467 12.0126H35.606C36.8407 12.0126 37.9552 11.4904 38.7464 10.6641C39.1703 10.2213 39.5034 9.69417 39.7107 9.10336C39.8687 8.65304 39.9565 8.17574 39.9568 7.67117H34.7647C34.7643 6.35658 33.7176 5.33301 32.4262 5.33301ZM32.4262 8.6684C31.8642 8.6684 31.4089 8.21275 31.4089 7.6511C31.4089 7.08914 31.8645 6.6338 32.4262 6.6338C32.9878 6.6338 33.4435 7.08945 33.4435 7.6511C33.4435 8.21306 32.9881 8.6684 32.4262 8.6684Z" fill="#0D0D0D"/>
<path d="M21.8393 20.8412L20.4382 19.319L18.8909 20.8672L18.8903 20.8666L21.8073 23.7846L26.7374 18.8552L25.6109 17.71L21.8393 20.8412Z" fill="#0D0D0D"/>
<path d="M45.9619 22.1797H29.4424V23.784H45.9619V22.1797Z" fill="#0D0D0D"/>
<path d="M21.8393 29.5023L20.4382 27.9801L18.8909 29.5284L18.8903 29.5281L21.8073 32.4457L26.7374 27.5163L25.6109 26.3711L21.8393 29.5023Z" fill="#0D0D0D"/>
<path d="M45.9619 30.8418H29.4424V32.4461H45.9619V30.8418Z" fill="#0D0D0D"/>
<path d="M21.8393 38.1635L20.4382 36.6413L18.8909 38.1895L18.8903 38.1892L21.8073 41.1069L26.7374 36.1775L25.6109 35.0322L21.8393 38.1635Z" fill="#0D0D0D"/>
<path d="M45.9619 39.5029H29.4424V41.1073H45.9619V39.5029Z" fill="#0D0D0D"/>
<path d="M21.8393 46.8256L20.4382 45.3034L18.8909 46.8516L18.8903 46.8513L21.8073 49.769L26.7374 44.8396L25.6109 43.6943L21.8393 46.8256Z" fill="#0D0D0D"/>
<path d="M45.9619 48.1641H29.4424V49.7684H45.9619V48.1641Z" fill="#0D0D0D"/>
</svg>
