<svg width="64" height="64" viewBox="0 0 64 64" fill="none" xmlns="http://www.w3.org/2000/svg">
<path d="M49.149 8.81787H42.3468C42.0646 9.62789 41.6133 10.3617 41.0357 10.9578H49.1487C49.281 10.9578 49.3933 11.0745 49.3933 11.2065V56.2729C49.3933 56.4052 49.281 56.5259 49.1487 56.5259H15.7029C15.5705 56.5259 15.4583 56.4052 15.4583 56.2729V11.2068C15.4583 11.0745 15.5705 10.9582 15.7029 10.9582H23.8159C23.2385 10.362 22.7873 9.6282 22.5047 8.81818H15.7025C14.393 8.81818 13.3333 9.89758 13.3333 11.2071V56.2735C13.3333 57.5831 14.393 58.6665 15.7025 58.6665H49.1487C50.4582 58.6665 51.5179 57.5831 51.5179 56.2735V11.2068C51.5185 9.89727 50.4585 8.81787 49.149 8.81787Z" fill="white"/>
<path d="M32.4262 5.33337C31.1348 5.33337 30.088 6.35695 30.088 7.67154H24.8958C24.8962 8.17611 24.984 8.65058 25.142 9.1009C25.3493 9.6914 25.6814 10.2264 26.1054 10.6692C26.8966 11.4958 28.012 12.0129 29.2467 12.0129H35.606C36.8407 12.0129 37.9552 11.4908 38.7464 10.6645C39.1703 10.2217 39.5034 9.69454 39.7107 9.10372C39.8687 8.6534 39.9565 8.17611 39.9568 7.67154H34.7647C34.7643 6.35695 33.7176 5.33337 32.4262 5.33337ZM32.4262 8.66877C31.8642 8.66877 31.4089 8.21311 31.4089 7.65147C31.4089 7.0895 31.8645 6.63417 32.4262 6.63417C32.9878 6.63417 33.4435 7.08982 33.4435 7.65147C33.4435 8.21343 32.9881 8.66877 32.4262 8.66877Z" fill="white"/>
<path d="M21.8393 20.8414L20.4382 19.3193L18.8909 20.8675L18.8903 20.8668L21.8073 23.7848L26.7374 18.8555L25.6109 17.7102L21.8393 20.8414Z" fill="white"/>
<path d="M45.9619 22.1803H29.4424V23.7846H45.9619V22.1803Z" fill="white"/>
<path d="M21.8393 29.5025L20.4382 27.9803L18.8909 29.5285L18.8903 29.5282L21.8073 32.4459L26.7374 27.5165L25.6109 26.3712L21.8393 29.5025Z" fill="white"/>
<path d="M45.9619 30.8417H29.4424V32.446H45.9619V30.8417Z" fill="white"/>
<path d="M21.8393 38.1642L20.4382 36.642L18.8909 38.1902L18.8903 38.1899L21.8073 41.1076L26.7374 36.1782L25.6109 35.033L21.8393 38.1642Z" fill="white"/>
<path d="M45.9619 39.5032H29.4424V41.1075H45.9619V39.5032Z" fill="white"/>
<path d="M21.8393 46.8259L20.4382 45.3038L18.8909 46.852L18.8903 46.8517L21.8073 49.7693L26.7374 44.8399L25.6109 43.6947L21.8393 46.8259Z" fill="white"/>
<path d="M45.9619 48.1647H29.4424V49.769H45.9619V48.1647Z" fill="white"/>
</svg>
