<svg width="64" height="64" viewBox="0 0 64 64" fill="none" xmlns="http://www.w3.org/2000/svg">
<path d="M22.6008 32.1988C23.2207 32.1988 23.7419 31.7376 23.8223 31.1229C24.3511 27.0815 27.8168 23.9512 32.0003 23.9512C36.1838 23.9512 39.6495 27.0815 40.1783 31.1229C40.2587 31.7376 40.7799 32.1988 41.3998 32.1988C42.1456 32.1988 42.7164 31.5414 42.6202 30.8018C42.4964 29.8487 42.2449 28.9208 41.8679 28.0298C41.3284 26.7542 40.5564 25.609 39.5733 24.6259C38.5902 23.6428 37.445 22.8708 36.1693 22.3313C34.8482 21.7725 33.4456 21.4893 32.0003 21.4893C30.555 21.4893 29.1524 21.7725 27.8313 22.3313C26.5557 22.8708 25.4104 23.6428 24.4273 24.6259C23.4442 25.609 22.6722 26.7542 22.1327 28.0298C21.7561 28.9208 21.5043 29.8487 21.3804 30.8018C21.2842 31.5417 21.8551 32.1988 22.6008 32.1988Z" fill="#0D0D0D"/>
<path d="M57.825 38.5249C57.2855 37.2497 56.5135 36.1041 55.53 35.1213C54.5469 34.1379 53.4017 33.3659 52.1264 32.8264C50.8053 32.2679 49.4024 31.9844 47.9574 31.9844C46.8191 31.9844 45.707 32.1603 44.6401 32.508C44.3527 32.6018 44.0685 32.7081 43.788 32.8264C42.7204 33.2783 41.7435 33.8926 40.8774 34.6577L40.877 34.6581C40.7087 34.8067 40.5445 34.9613 40.3844 35.1213C40.2789 35.2265 40.1761 35.3338 40.0754 35.4432C39.3265 36.2555 38.4196 36.9099 37.3955 37.3249C37.3755 37.3328 37.3541 37.3414 37.3313 37.3507C33.9084 38.7119 30.0919 38.7119 26.669 37.3507C26.6462 37.3418 26.6248 37.3331 26.6048 37.3249C25.5807 36.9099 24.6738 36.2559 23.9249 35.4432C23.8246 35.3342 23.7214 35.2269 23.6159 35.1213C23.4558 34.9613 23.2916 34.8067 23.1229 34.6577C22.2568 33.8926 21.2799 33.2779 20.2123 32.8264C19.9318 32.7077 19.6479 32.6018 19.3602 32.508C18.2937 32.1606 17.1812 31.9844 16.0429 31.9844C14.5976 31.9844 13.195 32.2679 11.8739 32.8264C10.5986 33.3659 9.45302 34.1379 8.47026 35.1213C7.48682 36.1044 6.71482 37.2497 6.17533 38.5249C5.61686 39.8461 5.33331 41.249 5.33331 42.694C5.33331 44.1389 5.61686 45.5418 6.17533 46.863C6.71482 48.1383 7.48682 49.2838 8.47026 50.2666C9.45336 51.2497 10.5986 52.022 11.8739 52.5615C13.195 53.12 14.5979 53.4035 16.0429 53.4035C17.4879 53.4035 18.8908 53.12 20.2119 52.5615C21.4872 52.022 22.6328 51.25 23.6155 50.2666C24.599 49.2835 25.371 48.1383 25.9104 46.863C26.2492 46.0617 26.4869 45.2307 26.621 44.378C26.7376 43.6384 26.1612 42.9709 25.4123 42.9709H25.3934C24.7894 42.9709 24.2809 43.4125 24.185 44.0089C23.5565 47.9175 20.1719 50.9165 16.0943 50.9416C11.5317 50.9699 7.79486 47.2569 7.79486 42.694C7.79486 38.1462 11.4948 34.4463 16.0425 34.4463C17.1336 34.4463 18.1757 34.6591 19.1298 35.0458C20.154 35.4608 21.0608 36.1148 21.8094 36.9271C21.9101 37.0365 22.0129 37.1438 22.1184 37.249C22.2788 37.4094 22.4437 37.5642 22.6128 37.7133C23.4789 38.478 24.4551 39.0924 25.5224 39.5439C25.8028 39.6622 26.0867 39.7685 26.3744 39.8623C26.5886 39.932 26.9432 40.0506 27.3737 40.1958C30.3748 41.2076 33.6249 41.2076 36.6259 40.1958C37.0564 40.0506 37.411 39.932 37.6252 39.8623C37.9125 39.7685 38.1968 39.6622 38.4772 39.5439C39.5441 39.0924 40.5207 38.478 41.3869 37.7133C41.5559 37.5642 41.7208 37.4094 41.8812 37.249C41.9633 37.1669 42.0647 37.0575 42.1675 36.944C42.8915 36.1424 43.7798 35.5025 44.7756 35.0848C45.7356 34.6819 46.7873 34.4556 47.8898 34.4466C52.4324 34.41 56.2079 38.1565 56.2051 42.6995C56.2023 47.2452 52.5035 50.942 47.9574 50.942C43.8546 50.942 40.4424 47.931 39.8139 44.0027C39.719 43.409 39.2082 42.9713 38.6066 42.9713H38.5876C37.8387 42.9713 37.2623 43.6388 37.3789 44.3783C37.5134 45.2307 37.7508 46.062 38.0895 46.8633C38.629 48.1386 39.401 49.2842 40.3844 50.2669C41.3675 51.25 42.5128 52.0224 43.788 52.5619C45.1092 53.1203 46.5121 53.4039 47.9571 53.4039C49.4024 53.4039 50.8049 53.1203 52.1261 52.5619C53.4014 52.0224 54.5469 51.2504 55.5297 50.2669C56.5131 49.2838 57.2851 48.1386 57.8246 46.8633C58.3831 45.5422 58.6666 44.1393 58.6666 42.6943C58.6666 41.2493 58.3834 39.8461 57.825 38.5249Z" fill="#0D0D0D"/>
<path d="M32.0004 19.4067C28.8555 19.4067 26.2971 16.8482 26.2971 13.7034C26.2971 10.5585 28.8555 8 32.0004 8C35.1453 8 37.7038 10.5585 37.7038 13.7034C37.7038 16.8482 35.1453 19.4067 32.0004 19.4067ZM32.0004 10.0818C30.0035 10.0818 28.3788 11.7065 28.3788 13.7034C28.3788 15.7003 30.0035 17.325 32.0004 17.325C33.9973 17.325 35.622 15.7003 35.622 13.7034C35.622 11.7065 33.9973 10.0818 32.0004 10.0818Z" fill="#0D0D0D"/>
<path d="M48.2784 29.5005C45.1335 29.5005 42.575 26.942 42.575 23.7971C42.575 20.6522 45.1335 18.0938 48.2784 18.0938C51.4233 18.0938 53.9817 20.6522 53.9817 23.7971C53.9817 26.942 51.4233 29.5005 48.2784 29.5005ZM48.2784 20.1755C46.2815 20.1755 44.6568 21.8002 44.6568 23.7971C44.6568 25.794 46.2815 27.4187 48.2784 27.4187C50.2753 27.4187 51.9 25.794 51.9 23.7971C51.9 21.8002 50.2753 20.1755 48.2784 20.1755Z" fill="#0D0D0D"/>
<path d="M15.719 29.5014C12.5741 29.5014 10.0156 26.943 10.0156 23.7981C10.0156 20.6532 12.5741 18.0947 15.719 18.0947C18.8639 18.0947 21.4223 20.6532 21.4223 23.7981C21.4223 26.943 18.8639 29.5014 15.719 29.5014ZM15.719 20.1765C13.7221 20.1765 12.0974 21.8012 12.0974 23.7981C12.0974 25.795 13.7221 27.4197 15.719 27.4197C17.7159 27.4197 19.3406 25.795 19.3406 23.7981C19.3406 21.8012 17.7159 20.1765 15.719 20.1765Z" fill="#0D0D0D"/>
</svg>
