<svg width="64" height="64" viewBox="0 0 64 64" fill="none" xmlns="http://www.w3.org/2000/svg">
<path d="M22.6008 32.1983C23.2207 32.1983 23.7419 31.7372 23.8223 31.1225C24.3511 27.0811 27.8168 23.9507 32.0003 23.9507C36.1838 23.9507 39.6495 27.0811 40.1783 31.1225C40.2587 31.7372 40.7799 32.1983 41.3998 32.1983C42.1456 32.1983 42.7164 31.5409 42.6202 30.8013C42.4964 29.8482 42.2449 28.9203 41.8679 28.0293C41.3284 26.7537 40.5564 25.6085 39.5733 24.6254C38.5902 23.6423 37.445 22.8703 36.1693 22.3308C34.8482 21.772 33.4456 21.4888 32.0003 21.4888C30.555 21.4888 29.1524 21.772 27.8313 22.3308C26.5557 22.8703 25.4104 23.6423 24.4273 24.6254C23.4442 25.6085 22.6722 26.7537 22.1327 28.0293C21.7561 28.9203 21.5043 29.8482 21.3804 30.8013C21.2842 31.5412 21.8551 32.1983 22.6008 32.1983Z" fill="white"/>
<path d="M57.825 38.5244C57.2855 37.2492 56.5135 36.1036 55.53 35.1208C54.5469 34.1374 53.4017 33.3654 52.1264 32.8259C50.8053 32.2674 49.4024 31.9839 47.9574 31.9839C46.8191 31.9839 45.707 32.1598 44.6401 32.5075C44.3527 32.6013 44.0685 32.7076 43.788 32.8259C42.7204 33.2778 41.7435 33.8921 40.8774 34.6572L40.877 34.6576C40.7087 34.8062 40.5445 34.9608 40.3844 35.1208C40.2789 35.2261 40.1761 35.3333 40.0754 35.4427C39.3265 36.255 38.4196 36.9094 37.3955 37.3244C37.3755 37.3323 37.3541 37.3409 37.3313 37.3502C33.9084 38.7114 30.0919 38.7114 26.669 37.3502C26.6462 37.3413 26.6248 37.3326 26.6048 37.3244C25.5807 36.9094 24.6738 36.2554 23.9249 35.4427C23.8246 35.3337 23.7214 35.2264 23.6159 35.1208C23.4558 34.9608 23.2916 34.8062 23.1229 34.6572C22.2568 33.8921 21.2799 33.2774 20.2123 32.8259C19.9318 32.7072 19.6479 32.6013 19.3602 32.5075C18.2937 32.1602 17.1812 31.9839 16.0429 31.9839C14.5976 31.9839 13.195 32.2674 11.8739 32.8259C10.5986 33.3654 9.45302 34.1374 8.47026 35.1208C7.48682 36.1039 6.71482 37.2492 6.17533 38.5244C5.61686 39.8456 5.33331 41.2485 5.33331 42.6935C5.33331 44.1385 5.61686 45.5414 6.17533 46.8625C6.71482 48.1378 7.48682 49.2833 8.47026 50.2661C9.45336 51.2492 10.5986 52.0215 11.8739 52.561C13.195 53.1195 14.5979 53.4031 16.0429 53.4031C17.4879 53.4031 18.8908 53.1195 20.2119 52.561C21.4872 52.0215 22.6328 51.2495 23.6155 50.2661C24.599 49.283 25.371 48.1378 25.9104 46.8625C26.2492 46.0612 26.4869 45.2302 26.621 44.3775C26.7376 43.6379 26.1612 42.9705 25.4123 42.9705H25.3934C24.7894 42.9705 24.2809 43.412 24.185 44.0084C23.5565 47.917 20.1719 50.916 16.0943 50.9412C11.5317 50.9694 7.79486 47.2564 7.79486 42.6935C7.79486 38.1457 11.4948 34.4458 16.0425 34.4458C17.1336 34.4458 18.1757 34.6586 19.1298 35.0453C20.154 35.4603 21.0608 36.1143 21.8094 36.9266C21.9101 37.036 22.0129 37.1433 22.1184 37.2485C22.2788 37.4089 22.4437 37.5638 22.6128 37.7128C23.4789 38.4775 24.4551 39.0919 25.5224 39.5434C25.8028 39.6617 26.0867 39.768 26.3744 39.8618C26.5886 39.9315 26.9432 40.0501 27.3737 40.1954C30.3748 41.2071 33.6249 41.2071 36.6259 40.1954C37.0564 40.0501 37.411 39.9315 37.6252 39.8618C37.9125 39.768 38.1968 39.6617 38.4772 39.5434C39.5441 39.0919 40.5207 38.4775 41.3869 37.7128C41.5559 37.5638 41.7208 37.4089 41.8812 37.2485C41.9633 37.1664 42.0647 37.057 42.1675 36.9435C42.8915 36.1419 43.7798 35.502 44.7756 35.0843C45.7356 34.6814 46.7873 34.4551 47.8898 34.4461C52.4324 34.4096 56.2079 38.156 56.2051 42.699C56.2023 47.2447 52.5035 50.9415 47.9574 50.9415C43.8546 50.9415 40.4424 47.9305 39.8139 44.0022C39.719 43.4085 39.2082 42.9708 38.6066 42.9708H38.5876C37.8387 42.9708 37.2623 43.6383 37.3789 44.3778C37.5134 45.2302 37.7508 46.0615 38.0895 46.8628C38.629 48.1381 39.401 49.2837 40.3844 50.2664C41.3675 51.2495 42.5128 52.0219 43.788 52.5614C45.1092 53.1198 46.5121 53.4034 47.9571 53.4034C49.4024 53.4034 50.8049 53.1198 52.1261 52.5614C53.4014 52.0219 54.5469 51.2499 55.5297 50.2664C56.5131 49.2833 57.2851 48.1381 57.8246 46.8628C58.3831 45.5417 58.6666 44.1388 58.6666 42.6938C58.6666 41.2488 58.3834 39.8456 57.825 38.5244Z" fill="white"/>
<path d="M32.0004 19.4067C28.8555 19.4067 26.2971 16.8482 26.2971 13.7034C26.2971 10.5585 28.8555 8 32.0004 8C35.1453 8 37.7038 10.5585 37.7038 13.7034C37.7038 16.8482 35.1453 19.4067 32.0004 19.4067ZM32.0004 10.0818C30.0035 10.0818 28.3788 11.7065 28.3788 13.7034C28.3788 15.7003 30.0035 17.325 32.0004 17.325C33.9973 17.325 35.622 15.7003 35.622 13.7034C35.622 11.7065 33.9973 10.0818 32.0004 10.0818Z" fill="white"/>
<path d="M48.2784 29.5006C45.1335 29.5006 42.575 26.9421 42.575 23.7972C42.575 20.6523 45.1335 18.0939 48.2784 18.0939C51.4233 18.0939 53.9817 20.6523 53.9817 23.7972C53.9817 26.9421 51.4233 29.5006 48.2784 29.5006ZM48.2784 20.1756C46.2815 20.1756 44.6568 21.8003 44.6568 23.7972C44.6568 25.7941 46.2815 27.4188 48.2784 27.4188C50.2753 27.4188 51.9 25.7941 51.9 23.7972C51.9 21.8003 50.2753 20.1756 48.2784 20.1756Z" fill="white"/>
<path d="M15.719 29.501C12.5741 29.501 10.0156 26.9425 10.0156 23.7976C10.0156 20.6527 12.5741 18.0942 15.719 18.0942C18.8639 18.0942 21.4223 20.6527 21.4223 23.7976C21.4223 26.9425 18.8639 29.501 15.719 29.501ZM15.719 20.176C13.7221 20.176 12.0974 21.8007 12.0974 23.7976C12.0974 25.7945 13.7221 27.4192 15.719 27.4192C17.7159 27.4192 19.3406 25.7945 19.3406 23.7976C19.3406 21.8007 17.7159 20.176 15.719 20.176Z" fill="white"/>
</svg>
