<svg width="64" height="64" viewBox="0 0 64 64" fill="none" xmlns="http://www.w3.org/2000/svg">
<path d="M56.0426 50.5695L52.7637 24.8512H42.7223V19.9758C42.7223 14.1037 37.9438 9.3252 32.0717 9.3252C29.1357 9.3252 26.371 10.4765 24.2845 12.5649C22.1961 14.6533 21.0448 17.4198 21.0448 20.3521V24.8493H11.3946L7.96488 50.5471C7.82515 51.5885 8.14371 52.6393 8.83487 53.4292C9.52603 54.2191 10.5264 54.6718 11.5753 54.6718H52.4302C53.4772 54.6718 54.4739 54.2209 55.1651 53.4366C55.8544 52.6542 56.1748 51.609 56.0426 50.5695ZM37.4464 31.1573C36.975 31.1573 36.5931 30.7736 36.5931 30.3041C36.5931 29.8328 36.9769 29.4509 37.4464 29.4509H42.5434C43.0148 29.4509 43.3967 29.8328 43.3967 30.3041C43.3967 30.7754 43.0129 31.1573 42.5434 31.1573H37.4464ZM41.4313 32.0795V34.5368L40.1589 35.6806L38.661 34.4064L38.7095 32.0795H41.4313ZM37.4315 24.853L26.3393 24.8512V20.354C26.3393 17.2279 28.8823 14.6552 32.0084 14.6198C33.4149 14.6123 34.7599 15.1544 35.7864 16.1697C36.8316 17.2037 37.4315 18.6289 37.4315 20.0838V24.853ZM22.3377 20.354C22.3377 17.7663 23.353 15.324 25.1992 13.4796C27.0417 11.6353 29.484 10.6181 32.0736 10.6181C37.234 10.6181 41.4331 14.8172 41.4331 19.9776V28.5268H38.7244V20.0838C38.7244 18.2861 37.9848 16.5237 36.6956 15.2513C35.4213 13.9919 33.7465 13.3064 31.9953 13.3287C28.1651 13.3716 25.0502 16.5218 25.0502 20.354V28.5268H22.3395V20.354H22.3377ZM21.1752 29.4509H26.2723C26.7436 29.4509 27.1255 29.8328 27.1255 30.3041C27.1255 30.7754 26.7418 31.1573 26.2723 31.1573H21.1752C20.7039 31.1573 20.3219 30.7736 20.3219 30.3041C20.3219 29.8328 20.7039 29.4509 21.1752 29.4509ZM25.1191 35.0137L23.9175 36.0774L22.3377 34.9671V32.0795H25.0595L25.1191 35.0137ZM53.9169 52.3412C53.5406 52.7678 52.9984 53.0137 52.4284 53.0137H11.5734C11.0015 53.0137 10.4575 52.7678 10.0812 52.3375C9.70487 51.9071 9.53165 51.3352 9.60803 50.7688L12.8459 26.5111H21.0429V28.5343C20.1245 28.6013 19.396 29.3689 19.396 30.3041C19.396 31.2393 20.1245 32.0069 21.0429 32.0739V35.6397L24.0069 37.7224L26.4213 35.5875L26.3487 32.0795C27.2913 32.0385 28.0458 31.2598 28.0458 30.3078C28.0458 29.3521 27.2857 28.5715 26.3375 28.5343V26.5148L37.4296 26.5167V28.5306C36.4571 28.538 35.6672 29.3316 35.6672 30.306C35.6672 31.2766 36.4497 32.0665 37.4165 32.0814L37.3551 34.9951L40.1793 37.4002L42.7205 35.1161V32.0739C43.6147 31.9826 44.3151 31.2244 44.3151 30.3078C44.3151 29.3913 43.6147 28.6312 42.7205 28.5417V26.5186H51.2975L54.392 50.7856C54.4683 51.3445 54.2932 51.9146 53.9169 52.3412Z" fill="#0D0D0D"/>
</svg>
