<svg width="64" height="64" viewBox="0 0 64 64" fill="none" xmlns="http://www.w3.org/2000/svg">
<path d="M56.0426 50.5697L52.7637 24.8514H42.7223V19.976C42.7223 14.104 37.9438 9.32544 32.0717 9.32544C29.1357 9.32544 26.371 10.4768 24.2845 12.5651C22.1961 14.6535 21.0448 17.42 21.0448 20.3524V24.8496H11.3946L7.96488 50.5474C7.82515 51.5888 8.14371 52.6395 8.83487 53.4294C9.52603 54.2193 10.5264 54.672 11.5753 54.672H52.4302C53.4772 54.672 54.4739 54.2212 55.1651 53.4369C55.8544 52.6544 56.1748 51.6093 56.0426 50.5697ZM37.4464 31.1576C36.975 31.1576 36.5931 30.7738 36.5931 30.3043C36.5931 29.833 36.9769 29.4511 37.4464 29.4511H42.5434C43.0148 29.4511 43.3967 29.833 43.3967 30.3043C43.3967 30.7757 43.0129 31.1576 42.5434 31.1576H37.4464ZM41.4313 32.0798V34.537L40.1589 35.6809L38.661 34.4066L38.7095 32.0798H41.4313ZM37.4315 24.8533L26.3393 24.8514V20.3542C26.3393 17.2282 28.8823 14.6554 32.0084 14.62C33.4149 14.6126 34.7599 15.1547 35.7864 16.17C36.8316 17.2039 37.4315 18.6291 37.4315 20.0841V24.8533ZM22.3377 20.3542C22.3377 17.7665 23.353 15.3242 25.1992 13.4799C27.0417 11.6355 29.484 10.6183 32.0736 10.6183C37.234 10.6183 41.4331 14.8175 41.4331 19.9779V28.5271H38.7244V20.0841C38.7244 18.2863 37.9848 16.5239 36.6956 15.2515C35.4213 13.9922 33.7465 13.3066 31.9953 13.329C28.1651 13.3718 25.0502 16.5221 25.0502 20.3542V28.5271H22.3395V20.3542H22.3377ZM21.1752 29.4511H26.2723C26.7436 29.4511 27.1255 29.833 27.1255 30.3043C27.1255 30.7757 26.7418 31.1576 26.2723 31.1576H21.1752C20.7039 31.1576 20.3219 30.7738 20.3219 30.3043C20.3219 29.833 20.7039 29.4511 21.1752 29.4511ZM25.1191 35.0139L23.9175 36.0777L22.3377 34.9674V32.0798H25.0595L25.1191 35.0139ZM53.9169 52.3414C53.5406 52.7681 52.9984 53.014 52.4284 53.014H11.5734C11.0015 53.014 10.4575 52.768 10.0812 52.3377C9.70487 51.9074 9.53165 51.3354 9.60803 50.7691L12.8459 26.5113H21.0429V28.5345C20.1245 28.6016 19.396 29.3691 19.396 30.3043C19.396 31.2396 20.1245 32.0071 21.0429 32.0742V35.6399L24.0069 37.7227L26.4213 35.5877L26.3487 32.0798C27.2913 32.0388 28.0458 31.2601 28.0458 30.3081C28.0458 29.3524 27.2857 28.5718 26.3375 28.5345V26.5151L37.4296 26.5169V28.5308C36.4571 28.5382 35.6672 29.3319 35.6672 30.3062C35.6672 31.2768 36.4497 32.0667 37.4165 32.0816L37.3551 34.9953L40.1793 37.4004L42.7205 35.1164V32.0742C43.6147 31.9829 44.3151 31.2247 44.3151 30.3081C44.3151 29.3915 43.6147 28.6314 42.7205 28.542V26.5188H51.2975L54.392 50.7859C54.4683 51.3447 54.2932 51.9148 53.9169 52.3414Z" fill="white"/>
</svg>
