<svg width="274" height="50" viewBox="0 0 274 50" fill="none" xmlns="http://www.w3.org/2000/svg">
<rect x="1" y="1" width="272" height="48" stroke="#262626" stroke-width="2"/>
<path d="M43.0239 38.9222C43.1679 38.9222 43.2399 39.012 43.2399 39.1916C43.2399 39.3713 43.1679 39.4611 43.0239 39.4611C42.4766 39.4611 41.598 39.4311 40.3881 39.3713C39.1783 39.3114 38.2997 39.2814 37.7524 39.2814C37.0323 39.2814 36.1825 39.3114 35.2031 39.3713C34.2237 39.4311 33.4603 39.4611 32.913 39.4611C32.7978 39.4611 32.7402 39.3713 32.7402 39.1916C32.7402 39.012 32.7978 38.9222 32.913 38.9222C33.7484 38.9222 34.3533 38.8323 34.7278 38.6527C35.1311 38.4431 35.3327 38.1138 35.3327 37.6647C35.3327 37.2156 35.0879 36.4521 34.5982 35.3743L31.3143 28.4581H20.8578L18.7838 33.3084C18.4093 34.2066 18.2221 35.015 18.2221 35.7335C18.2221 36.7814 18.5821 37.5749 19.3023 38.1138C20.0224 38.6527 21.0306 38.9222 22.3269 38.9222C22.4709 38.9222 22.5429 39.012 22.5429 39.1916C22.5429 39.3713 22.4709 39.4611 22.3269 39.4611C21.8084 39.4611 21.0594 39.4311 20.08 39.3713C18.9854 39.3114 18.0348 39.2814 17.2283 39.2814C16.4505 39.2814 15.5431 39.3114 14.5061 39.3713C13.5843 39.4311 12.821 39.4611 12.216 39.4611C12.072 39.4611 12 39.3713 12 39.1916C12 39.012 12.072 38.9222 12.216 38.9222C13.0226 38.9222 13.6995 38.7575 14.2469 38.4281C14.7942 38.0988 15.3271 37.515 15.8456 36.6766C16.3641 35.8084 16.9834 34.5359 17.7036 32.8593L26.9934 11.1228C27.051 11.0329 27.1807 10.988 27.3823 10.988C27.584 10.988 27.6992 11.0329 27.728 11.1228L38.3141 33.3084C39.3223 35.4641 40.1577 36.9461 40.8202 37.7545C41.5116 38.5329 42.2461 38.9222 43.0239 38.9222ZM21.3331 27.3353H30.7958L25.8268 16.8713L21.3331 27.3353Z" fill="#0A0A0A"/>
<path d="M51.8358 35.6437C51.8358 36.4521 51.8934 37.0359 52.0086 37.3952C52.1526 37.7545 52.4119 37.994 52.7863 38.1138C53.1608 38.2335 53.7657 38.2934 54.6011 38.2934H57.1936C59.2388 38.2934 60.9672 37.7096 62.3787 36.5419C63.7902 35.3443 64.7264 33.7425 65.1873 31.7365C65.2161 31.6467 65.3025 31.6168 65.4465 31.6467C65.5905 31.6467 65.6625 31.6916 65.6625 31.7814C65.4033 34.5958 65.2737 36.9311 65.2737 38.7874C65.2737 39.0269 65.2305 39.2066 65.144 39.3263C65.0576 39.4162 64.8848 39.4611 64.6255 39.4611H44.4039C44.3462 39.4611 44.3174 39.3713 44.3174 39.1916C44.3174 39.012 44.3462 38.9222 44.4039 38.9222C45.3832 38.9222 46.089 38.8473 46.5211 38.6976C46.982 38.5479 47.2844 38.2635 47.4285 37.8443C47.6013 37.3952 47.6877 36.7216 47.6877 35.8234V15.0299C47.6877 14.1317 47.6013 13.4731 47.4285 13.0539C47.2844 12.6347 46.982 12.3503 46.5211 12.2006C46.0602 12.021 45.3544 11.9311 44.4039 11.9311C44.3462 11.9311 44.3174 11.8413 44.3174 11.6617C44.3174 11.482 44.3462 11.3922 44.4039 11.3922L46.6075 11.4371C47.875 11.497 48.912 11.5269 49.7185 11.5269C50.5827 11.5269 51.6485 11.497 52.916 11.4371L55.0764 11.3922C55.1628 11.3922 55.206 11.482 55.206 11.6617C55.206 11.8413 55.1628 11.9311 55.0764 11.9311C54.1258 11.9311 53.4201 12.021 52.9592 12.2006C52.5271 12.3503 52.2246 12.6497 52.0518 13.0988C51.9078 13.518 51.8358 14.1766 51.8358 15.0748V35.6437Z" fill="#0A0A0A"/>
<path d="M75.8173 35.8234C75.8173 36.7515 75.8893 37.4251 76.0333 37.8443C76.1773 38.2635 76.4654 38.5479 76.8975 38.6976C77.3584 38.8473 78.0785 38.9222 79.0579 38.9222C79.1443 38.9222 79.1876 39.012 79.1876 39.1916C79.1876 39.3713 79.1443 39.4611 79.0579 39.4611C78.1361 39.4611 77.4016 39.4461 76.8543 39.4162L73.6568 39.3713L70.5458 39.4162C69.9985 39.4461 69.2495 39.4611 68.299 39.4611C68.2125 39.4611 68.1693 39.3713 68.1693 39.1916C68.1693 39.012 68.2125 38.9222 68.299 38.9222C69.2784 38.9222 69.9841 38.8473 70.4162 38.6976C70.8771 38.5479 71.1939 38.2635 71.3668 37.8443C71.5396 37.3952 71.626 36.7216 71.626 35.8234V15.0299C71.626 14.1317 71.5396 13.4731 71.3668 13.0539C71.1939 12.6347 70.8771 12.3503 70.4162 12.2006C69.9841 12.021 69.2784 11.9311 68.299 11.9311C68.2125 11.9311 68.1693 11.8413 68.1693 11.6617C68.1693 11.482 68.2125 11.3922 68.299 11.3922L70.5458 11.4371C71.8133 11.497 72.8503 11.5269 73.6568 11.5269C74.5498 11.5269 75.63 11.497 76.8975 11.4371L79.0579 11.3922C79.1443 11.3922 79.1876 11.482 79.1876 11.6617C79.1876 11.8413 79.1443 11.9311 79.0579 11.9311C78.1073 11.9311 77.4016 12.021 76.9407 12.2006C76.5086 12.3802 76.2062 12.6946 76.0333 13.1437C75.8893 13.5629 75.8173 14.2216 75.8173 15.1198V35.8234Z" fill="#0A0A0A"/>
<path d="M88.126 16.1527C88.126 17.2605 88.3853 18.2485 88.9038 19.1168C89.4511 19.9551 90.1136 20.6886 90.8914 21.3174C91.6979 21.9461 92.7782 22.6946 94.132 23.5629C95.6011 24.521 96.7534 25.3443 97.5887 26.0329C98.4529 26.7216 99.1731 27.5749 99.7492 28.5928C100.354 29.5808 100.657 30.7485 100.657 32.0958C100.657 33.6228 100.268 34.985 99.4899 36.1826C98.741 37.3802 97.6608 38.3234 96.2493 39.012C94.8666 39.6707 93.2823 40 91.4963 40C90.2865 40 89.0334 39.8353 87.7371 39.506C86.4697 39.1766 85.5047 38.7725 84.8422 38.2934C84.5829 38.1138 84.4389 37.8293 84.4101 37.4401L84.1508 30.6138V30.5689C84.1508 30.4491 84.2228 30.3892 84.3669 30.3892C84.5109 30.3593 84.5973 30.4042 84.6261 30.524C85.5767 33.009 86.6569 35.0449 87.8668 36.6317C89.1054 38.2186 90.6753 39.012 92.5765 39.012C93.8152 39.012 94.8522 38.6677 95.6875 37.979C96.5229 37.2605 96.9406 36.0778 96.9406 34.4311C96.9406 33.1138 96.6525 31.9611 96.0764 30.9731C95.5291 29.985 94.8378 29.1617 94.0024 28.503C93.1958 27.8443 92.0868 27.0359 90.6753 26.0778C89.2927 25.1497 88.2124 24.3713 87.4347 23.7425C86.6569 23.0838 85.9944 22.2904 85.4471 21.3623C84.8998 20.4042 84.6261 19.2964 84.6261 18.0389C84.6261 16.482 85.0438 15.1647 85.8792 14.0868C86.7145 13.009 87.7948 12.2156 89.1198 11.7066C90.4737 11.1677 91.8852 10.8982 93.3543 10.8982C94.3337 10.8982 95.3131 11.003 96.2925 11.2126C97.2719 11.3922 98.0928 11.6317 98.7554 11.9311C99.1875 12.1108 99.4035 12.3952 99.4035 12.7844L99.5331 18.8922C99.5331 18.982 99.4467 19.0419 99.2739 19.0719C99.1298 19.1018 99.0434 19.0719 99.0146 18.982C98.4385 17.1557 97.6608 15.509 96.6814 14.0419C95.7308 12.5449 94.2905 11.7964 92.3605 11.7964C91.0642 11.7964 90.0272 12.1856 89.2495 12.9641C88.5005 13.7425 88.126 14.8054 88.126 16.1527Z" fill="#0A0A0A"/>
<path d="M134.439 38.9222C134.525 38.9222 134.568 39.012 134.568 39.1916C134.568 39.3713 134.525 39.4611 134.439 39.4611C133.459 39.4611 132.667 39.4461 132.062 39.4162L128.908 39.3713L125.235 39.4162C124.717 39.4461 124.025 39.4611 123.161 39.4611C123.075 39.4611 123.032 39.3713 123.032 39.1916C123.032 39.012 123.075 38.9222 123.161 38.9222C124.256 38.9222 125.048 38.8473 125.538 38.6976C126.027 38.5479 126.359 38.2635 126.531 37.8443C126.704 37.4251 126.791 36.7515 126.791 35.8234V25.4491H111.97V35.8234C111.97 36.7216 112.057 37.3952 112.229 37.8443C112.402 38.2635 112.734 38.5479 113.223 38.6976C113.742 38.8473 114.548 38.9222 115.643 38.9222C115.701 38.9222 115.729 39.012 115.729 39.1916C115.729 39.3713 115.701 39.4611 115.643 39.4611C114.663 39.4611 113.9 39.4461 113.353 39.4162L109.767 39.3713L106.612 39.4162C106.065 39.4461 105.302 39.4611 104.322 39.4611C104.265 39.4611 104.236 39.3713 104.236 39.1916C104.236 39.012 104.265 38.9222 104.322 38.9222C105.359 38.9222 106.123 38.8473 106.612 38.6976C107.102 38.5479 107.433 38.2635 107.606 37.8443C107.779 37.3952 107.865 36.7216 107.865 35.8234V15.0299C107.865 14.1317 107.779 13.4731 107.606 13.0539C107.433 12.6347 107.102 12.3503 106.612 12.2006C106.123 12.021 105.374 11.9311 104.365 11.9311C104.308 11.9311 104.279 11.8413 104.279 11.6617C104.279 11.482 104.308 11.3922 104.365 11.3922L106.655 11.4371C107.981 11.497 109.018 11.5269 109.767 11.5269C110.775 11.5269 111.97 11.497 113.353 11.4371L115.643 11.3922C115.701 11.3922 115.729 11.482 115.729 11.6617C115.729 11.8413 115.701 11.9311 115.643 11.9311C114.577 11.9311 113.785 12.021 113.266 12.2006C112.777 12.3802 112.431 12.6946 112.229 13.1437C112.057 13.5629 111.97 14.2216 111.97 15.1198V24.2814H126.791V15.1198C126.791 14.2216 126.704 13.5629 126.531 13.1437C126.359 12.6946 126.013 12.3802 125.494 12.2006C125.005 12.021 124.227 11.9311 123.161 11.9311C123.075 11.9311 123.032 11.8413 123.032 11.6617C123.032 11.482 123.075 11.3922 123.161 11.3922L125.235 11.4371C126.618 11.497 127.842 11.5269 128.908 11.5269C129.686 11.5269 130.737 11.497 132.062 11.4371L134.439 11.3922C134.525 11.3922 134.568 11.482 134.568 11.6617C134.568 11.8413 134.525 11.9311 134.439 11.9311C133.402 11.9311 132.638 12.021 132.149 12.2006C131.688 12.3503 131.371 12.6347 131.198 13.0539C131.025 13.4731 130.939 14.1317 130.939 15.0299V35.8234C130.939 36.7216 131.025 37.3952 131.198 37.8443C131.371 38.2635 131.688 38.5479 132.149 38.6976C132.638 38.8473 133.402 38.9222 134.439 38.9222Z" fill="#0A0A0A"/>
<path d="M166.574 38.9222C166.718 38.9222 166.79 39.012 166.79 39.1916C166.79 39.3713 166.718 39.4611 166.574 39.4611C166.027 39.4611 165.148 39.4311 163.938 39.3713C162.728 39.3114 161.85 39.2814 161.302 39.2814C160.582 39.2814 159.732 39.3114 158.753 39.3713C157.774 39.4311 157.01 39.4611 156.463 39.4611C156.348 39.4611 156.29 39.3713 156.29 39.1916C156.29 39.012 156.348 38.9222 156.463 38.9222C157.298 38.9222 157.903 38.8323 158.278 38.6527C158.681 38.4431 158.883 38.1138 158.883 37.6647C158.883 37.2156 158.638 36.4521 158.148 35.3743L154.864 28.4581H144.408L142.334 33.3084C141.959 34.2066 141.772 35.015 141.772 35.7335C141.772 36.7814 142.132 37.5749 142.852 38.1138C143.572 38.6527 144.581 38.9222 145.877 38.9222C146.021 38.9222 146.093 39.012 146.093 39.1916C146.093 39.3713 146.021 39.4611 145.877 39.4611C145.358 39.4611 144.609 39.4311 143.63 39.3713C142.535 39.3114 141.585 39.2814 140.778 39.2814C140 39.2814 139.093 39.3114 138.056 39.3713C137.134 39.4311 136.371 39.4611 135.766 39.4611C135.622 39.4611 135.55 39.3713 135.55 39.1916C135.55 39.012 135.622 38.9222 135.766 38.9222C136.573 38.9222 137.25 38.7575 137.797 38.4281C138.344 38.0988 138.877 37.515 139.396 36.6766C139.914 35.8084 140.533 34.5359 141.254 32.8593L150.543 11.1228C150.601 11.0329 150.731 10.988 150.932 10.988C151.134 10.988 151.249 11.0329 151.278 11.1228L161.864 33.3084C162.872 35.4641 163.708 36.9461 164.37 37.7545C165.062 38.5329 165.796 38.9222 166.574 38.9222ZM144.883 27.3353H154.346L149.377 16.8713L144.883 27.3353Z" fill="#0A0A0A"/>
<path d="M206.901 38.9222C206.988 38.9222 207.031 39.012 207.031 39.1916C207.031 39.3713 206.988 39.4611 206.901 39.4611H199.944C199.282 39.4611 198.043 38.2635 196.229 35.8683C194.443 33.4731 192.268 30.1198 189.704 25.8084C189.07 25.8683 188.581 25.8982 188.235 25.8982C187.601 25.8982 186.852 25.8683 185.988 25.8084V35.8234C185.988 36.7515 186.06 37.4251 186.204 37.8443C186.377 38.2635 186.679 38.5479 187.111 38.6976C187.572 38.8473 188.293 38.9222 189.272 38.9222C189.33 38.9222 189.358 39.012 189.358 39.1916C189.358 39.3713 189.33 39.4611 189.272 39.4611C188.321 39.4611 187.587 39.4461 187.068 39.4162L183.871 39.3713L180.76 39.4162C180.212 39.4461 179.464 39.4611 178.513 39.4611C178.427 39.4611 178.383 39.3713 178.383 39.1916C178.383 39.012 178.427 38.9222 178.513 38.9222C179.492 38.9222 180.198 38.8473 180.63 38.6976C181.091 38.5479 181.408 38.2635 181.581 37.8443C181.754 37.3952 181.84 36.7216 181.84 35.8234V15.0299C181.84 14.1317 181.754 13.4731 181.581 13.0539C181.437 12.6347 181.134 12.3503 180.673 12.2006C180.212 12.021 179.507 11.9311 178.556 11.9311C178.499 11.9311 178.47 11.8413 178.47 11.6617C178.47 11.482 178.499 11.3922 178.556 11.3922L180.803 11.4371C182.07 11.497 183.093 11.5269 183.871 11.5269C184.821 11.5269 185.858 11.482 186.982 11.3922C187.356 11.3623 187.803 11.3323 188.321 11.3024C188.869 11.2725 189.474 11.2575 190.136 11.2575C192.642 11.2575 194.572 11.7665 195.926 12.7844C197.309 13.8024 198 15.2246 198 17.0509C198 18.6976 197.554 20.1796 196.661 21.497C195.796 22.8144 194.63 23.8623 193.161 24.6407C195.523 28.2635 197.496 31.0928 199.08 33.1287C200.665 35.1647 202.062 36.6467 203.272 37.5749C204.51 38.4731 205.72 38.9222 206.901 38.9222ZM185.988 24.5958C186.679 24.7156 187.515 24.7754 188.494 24.7754C190.367 24.7754 191.706 24.2964 192.513 23.3383C193.319 22.3503 193.722 20.7784 193.722 18.6228C193.722 16.1976 193.319 14.506 192.513 13.5479C191.735 12.5898 190.597 12.1108 189.099 12.1108C187.976 12.1108 187.169 12.3353 186.679 12.7844C186.219 13.2036 185.988 13.982 185.988 15.1198V24.5958Z" fill="#0A0A0A"/>
<path d="M220.32 40C217.641 40 215.25 39.3563 213.147 38.0689C211.073 36.7515 209.46 34.985 208.308 32.7695C207.184 30.524 206.623 28.0838 206.623 25.4491C206.623 22.3653 207.372 19.7305 208.869 17.5449C210.367 15.3293 212.283 13.6677 214.616 12.5599C216.978 11.4521 219.384 10.8982 221.832 10.8982C224.569 10.8982 226.974 11.5719 229.048 12.9192C231.122 14.2365 232.706 15.988 233.801 18.1737C234.924 20.3593 235.486 22.6796 235.486 25.1347C235.486 27.8593 234.795 30.3593 233.412 32.6347C232.029 34.9102 230.171 36.7066 227.838 38.024C225.534 39.3413 223.028 40 220.32 40ZM221.789 38.9222C223.517 38.9222 225.058 38.4431 226.412 37.485C227.795 36.497 228.875 35.0599 229.653 33.1737C230.459 31.2874 230.863 29.0419 230.863 26.4371C230.863 23.6826 230.416 21.2126 229.523 19.0269C228.659 16.8413 227.406 15.1347 225.764 13.9072C224.151 12.6796 222.25 12.0659 220.061 12.0659C217.266 12.0659 215.092 13.1138 213.536 15.2096C212.009 17.2754 211.246 20.1497 211.246 23.8323C211.246 26.6766 211.692 29.2515 212.585 31.5569C213.507 33.8623 214.76 35.6737 216.345 36.991C217.958 38.2784 219.772 38.9222 221.789 38.9222Z" fill="#0A0A0A"/>
<path d="M255.908 12.515C255.994 12.3653 256.023 12.2754 255.994 12.2455C255.994 12.1856 255.893 12.1557 255.692 12.1557C251.832 12.1557 249.009 12.2754 247.223 12.515C245.437 12.7245 244.054 13.2186 243.075 13.997C242.095 14.7455 241.231 15.988 240.482 17.7246C240.482 17.7545 240.424 17.7695 240.309 17.7695C240.05 17.7695 239.935 17.7096 239.964 17.5898L241.692 10.0449C241.692 10.015 241.75 10 241.865 10C242.153 10 242.268 10.0449 242.21 10.1347C242.182 10.2245 242.167 10.3443 242.167 10.494C242.167 10.8533 242.326 11.0928 242.642 11.2126C242.988 11.3323 243.665 11.3922 244.673 11.3922H260.444C260.589 11.3922 260.689 11.4671 260.747 11.6168C260.833 11.7665 260.833 11.8862 260.747 11.976L245.192 38.2485C245.077 38.3982 245.033 38.503 245.062 38.5629C245.091 38.5928 245.192 38.6078 245.365 38.6078H254.871C256.541 38.6078 257.996 38.0689 259.235 36.991C260.473 35.9132 261.237 34.5359 261.525 32.8593C261.554 32.7695 261.64 32.7246 261.784 32.7246C261.928 32.7246 262 32.7695 262 32.8593L261.395 39.1018C261.395 39.1916 261.352 39.2964 261.265 39.4162C261.208 39.506 261.121 39.5509 261.006 39.5509C256.714 39.491 249.83 39.4611 240.352 39.4611C240.208 39.4611 240.108 39.4012 240.05 39.2814C239.992 39.1317 240.007 38.997 240.093 38.8772L255.908 12.515Z" fill="#0A0A0A"/>
</svg>
